<?xml version="1.0" encoding="UTF-8"?>
<svg width="32" height="32" viewBox="0 0 32 32" fill="none" xmlns="http://www.w3.org/2000/svg">
  <!-- Background with gradient matching the header -->
  <rect width="32" height="32" rx="8" fill="url(#gradient)"/>
  
  <!-- Stylized B with custom path to match brand -->
  <path d="M10 8h10.5c2.2 0 4 1.8 4 4 0 1.5-0.8 2.8-2 3.4 1.8 0.7 3 2.4 3 4.6 0 2.2-1.8 4-4 4H10V8zm4.5 6.5v-3h5c0.8 0 1.5 0.7 1.5 1.5s-0.7 1.5-1.5 1.5h-5zm0 7v-3.5h5.5c0.8 0 1.5 0.7 1.5 1.5s-0.7 1.5-1.5 1.5h-5.5z" fill="white"/>
  
  <!-- Shadow effect for depth -->
  <path d="M10 8h10.5c2.2 0 4 1.8 4 4 0 1.5-0.8 2.8-2 3.4 1.8 0.7 3 2.4 3 4.6 0 2.2-1.8 4-4 4H10V8zm4.5 6.5v-3h5c0.8 0 1.5 0.7 1.5 1.5s-0.7 1.5-1.5 1.5h-5zm0 7v-3.5h5.5c0.8 0 1.5 0.7 1.5 1.5s-0.7 1.5-1.5 1.5h-5.5z" fill="white" filter="url(#shadow)"/>
  
  <!-- Definitions -->
  <defs>
    <!-- Gradient matching the header branding -->
    <linearGradient id="gradient" x1="0" y1="0" x2="32" y2="32" gradientUnits="userSpaceOnUse">
      <stop offset="0%" stop-color="#f97316"/>
      <stop offset="50%" stop-color="#ef4444"/>
      <stop offset="100%" stop-color="#ec4899"/>
    </linearGradient>
    
    <!-- Subtle shadow effect -->
    <filter id="shadow" x="-20%" y="-20%" width="140%" height="140%">
      <feGaussianBlur in="SourceGraphic" stdDeviation="1"/>
      <feColorMatrix type="matrix" values="0 0 0 0 1   0 0 0 0 1   0 0 0 0 1  0 0 0 0.4 0"/>
    </filter>
  </defs>
</svg>
